HIERARCHY
ROOT Hips
{
	OFFSET 0.00000 0.00000 0.00000
	CHANNELS 6 Xposition Yposition Zposition Zrotation Yrotation Xrotation 
	JOINT LHipJoint
	{
		OFFSET 0 0 0
		CHANNELS 3 Zrotation Yrotation Xrotation
		JOINT LeftUpLeg
		{
			OFFSET 2.36090 -1.39315 1.24752
			CHANNELS 3 Zrotation Yrotation Xrotation
			JOINT LeftLeg
			{
				OFFSET 2.06810 -5.68207 0.00000
				CHANNELS 3 Zrotation Yrotation Xrotation
				JOINT LeftFoot
				{
					OFFSET 2.46631 -6.77613 0.00000
					CHANNELS 3 Zrotation Yrotation Xrotation
					JOINT LeftToeBase
					{
						OFFSET 0.26031 -0.71520 1.99545
						CHANNELS 3 Zrotation Yrotation Xrotation
						End Site
						{
							OFFSET 0.00000 -0.00000 1.05957
						}
					}
				}
			}
		}
	}
	JOINT RHipJoint
	{
		OFFSET 0 0 0
		CHANNELS 3 Zrotation Yrotation Xrotation
		JOINT RightUpLeg
		{
			OFFSET -2.25243 -1.39315 1.24752
			CHANNELS 3 Zrotation Yrotation Xrotation
			JOINT RightLeg
			{
				OFFSET -2.17343 -5.97145 0.00000
				CHANNELS 3 Zrotation Yrotation Xrotation
				JOINT RightFoot
				{
					OFFSET -2.52372 -6.93386 0.00000
					CHANNELS 3 Zrotation Yrotation Xrotation
					JOINT RightToeBase
					{
						OFFSET -0.22538 -0.61923 2.11447
						CHANNELS 3 Zrotation Yrotation Xrotation
						End Site
						{
							OFFSET -0.00000 -0.00000 1.10506
						}
					}
				}
			}
		}
	}
	JOINT LowerBack
	{
		OFFSET 0 0 0
		CHANNELS 3 Zrotation Yrotation Xrotation
		JOINT Spine
		{
			OFFSET 0.01594 2.13103 0.08007
			CHANNELS 3 Zrotation Yrotation Xrotation
			JOINT Spine1
			{
				OFFSET 0.01393 2.09723 0.18338
				CHANNELS 3 Zrotation Yrotation Xrotation
				JOINT Neck
				{
					OFFSET 0 0 0
					CHANNELS 3 Zrotation Yrotation Xrotation
					JOINT Neck1
					{
						OFFSET 0.05351 1.38915 0.32494
						CHANNELS 3 Zrotation Yrotation Xrotation
						JOINT Head
						{
							OFFSET 0.00711 1.45992 -0.21666
							CHANNELS 3 Zrotation Yrotation Xrotation
							End Site
							{
								OFFSET -0.00433 1.47702 -0.11056
							}
						}
					}
				}
				JOINT LeftShoulder
				{
					OFFSET 0 0 0
					CHANNELS 3 Zrotation Yrotation Xrotation
					JOINT LeftArm
					{
						OFFSET 2.87198 0.92249 0.11132
						CHANNELS 3 Zrotation Yrotation Xrotation
						JOINT LeftForeArm
						{
							OFFSET 5.52731 -0.00000 0.00000
							CHANNELS 3 Zrotation Yrotation Xrotation
							JOINT LeftHand
							{
								OFFSET 3.11059 -0.00000 0.00000
								CHANNELS 3 Zrotation Yrotation Xrotation
								JOINT LeftFingerBase
								{
									OFFSET 0 0 0
									CHANNELS 3 Zrotation Yrotation Xrotation
									JOINT LeftHandIndex1
									{
										OFFSET 0.41963 -0.00000 0.00000
										CHANNELS 3 Zrotation Yrotation Xrotation
										End Site
										{
											OFFSET 0.33831 -0.00000 0.00000
										}
									}
								}
								JOINT LThumb
								{
									OFFSET 0 0 0
									CHANNELS 3 Zrotation Yrotation Xrotation
									End Site
									{
										OFFSET 0.34348 -0.00000 0.34348
									}
								}
							}
						}
					}
				}
				JOINT RightShoulder
				{
					OFFSET 0 0 0
					CHANNELS 3 Zrotation Yrotation Xrotation
					JOINT RightArm
					{
						OFFSET -2.94710 0.68072 0.32187
						CHANNELS 3 Zrotation Yrotation Xrotation
						JOINT RightForeArm
						{
							OFFSET -5.25396 -0.00000 -0.00000
							CHANNELS 3 Zrotation Yrotation Xrotation
							JOINT RightHand
							{
								OFFSET -3.10567 -0.00000 0.00000
								CHANNELS 3 Zrotation Yrotation Xrotation
								JOINT RightFingerBase
								{
									OFFSET 0 0 0
									CHANNELS 3 Zrotation Yrotation Xrotation
									JOINT RightHandIndex1
									{
										OFFSET -0.49868 -0.00000 0.00000
										CHANNELS 3 Zrotation Yrotation Xrotation
										End Site
										{
											OFFSET -0.40204 -0.00000 0.00000
										}
									}
								}
								JOINT RThumb
								{
									OFFSET 0 0 0
									CHANNELS 3 Zrotation Yrotation Xrotation
									End Site
									{
										OFFSET -0.40818 -0.00000 0.40818
									}
								}
							}
						}
					}
				}
			}
		}
	}
}
MOTION
Frames: 12
Frame Time: .0083333
7.5075 20.327 6.377 0 0 0 0 0 0 -21 0 0 0 0 0 0 0 0 0 0 0 0 0 0 21 0 0 0 0 0 0 0 0 0 0 0 0 0 0 0 0 0 0 0 0 0 0 -16 0 0 21 0 0 11 0 0 0 -8 0 0 0 0 0 0 0 0 0 0 0 0 0 0 0 0 0 0 0 0 8 0 0 0 0 0 0 0 0 0 0 0 0 0 0 0 0 0
7.5075 20.3270 6.3770 -178.4130 2.1957 -159.9860 0.0000 0.0000 0.0000 -20.6384 -15.5738 -24.5805 1.5597 7.8814 22.3545 -0.2967 11.9099 -11.8901 3.4683 -11.4171 -33.6997 0.0000 0.0000 0.0000 17.5815 27.2776 -25.3129 -3.3765 -11.2810 33.2335 -1.0034 -4.2214 -20.8934 -0.2022 2.8956 -7.9882 -2.0148 1.5338 -12.9117 -0.9496 3.0454 -6.0076 0.5575 1.8710 0.8890 8.1665 10.0256 -28.3791 -5.8893 12.3753 24.2748 -1.1585 5.2183 13.8473 -0.0000 0.0000 0.0000 -79.8674 10.5053 21.6630 12.6076 -20.7096 -2.3127 -0.0000 0.0000 -39.4559 26.5262 0.4191 0.2092 -7.1250 0.0000 -0.0000 -0.0314 30.4482 0.0112 -0.0000 0.0000 0.0000 84.4713 -5.0465 14.3231 -18.9366 29.3399 -4.9998 0.0000 -0.0000 -3.9186 -12.2062 -18.7336 3.9743 7.1250 -0.0000 -0.0000 15.4826 -48.4871 -1.3620
7.4964 20.3261 6.3780 -178.5000 2.0630 -159.8980 0.0000 0.0000 0.0000 -20.7373 -15.6980 -24.6021 1.5437 7.8427 22.2375 -0.2913 11.8083 -11.7943 3.4764 -11.4289 -33.7406 0.0000 0.0000 0.0000 17.3974 27.3356 -25.4528 -3.4009 -11.3173 33.3577 -1.0049 -4.4922 -21.0653 -0.2181 3.0064 -8.2965 -2.0981 1.4267 -13.0679 -0.8649 2.9276 -6.0425 0.6823 1.8200 0.9306 8.5539 10.2836 -27.8127 -6.1362 12.6872 24.0906 -1.2665 5.3704 13.7380 -0.0000 0.0000 0.0000 -79.8676 10.9003 21.4682 12.7349 -20.8975 -2.3579 -0.0000 0.0000 -39.8231 26.7654 0.4816 0.2429 -7.1250 0.0000 -0.0000 0.1580 30.5191 -0.0559 -0.0000 0.0000 0.0000 84.4189 -5.1284 14.4738 -18.8411 29.2208 -4.9531 0.0000 -0.0000 -3.9122 -12.0666 -18.5241 3.8854 7.1250 -0.0000 -0.0000 15.5339 -48.2631 -1.2792
7.4851 20.3253 6.3778 -178.5810 1.9005 -159.7980 0.0000 0.0000 0.0000 -20.8217 -15.8291 -24.6738 1.5364 7.8250 22.1839 -0.2810 11.6767 -11.7502 3.4736 -11.4249 -33.7267 0.0000 0.0000 0.0000 17.2249 27.3385 -25.6089 -3.4217 -11.3482 33.4636 -1.0079 -4.6447 -21.1827 -0.2167 2.9965 -8.2690 -2.1538 1.3356 -13.2493 -0.8109 2.8292 -6.0663 0.7635 1.7772 1.0003 8.9848 10.5538 -27.2882 -6.3660 12.9947 23.9105 -1.3735 5.5276 13.6426 -0.0000 0.0000 0.0000 -79.7638 11.2185 21.3721 12.7861 -20.9730 -2.3762 -0.0000 0.0000 -39.9272 26.3674 0.0593 0.0294 -7.1250 0.0000 -0.0000 -0.1559 30.0460 0.0569 -0.0000 0.0000 0.0000 84.4272 -5.2609 14.5864 -18.8162 29.1896 -4.9409 0.0000 -0.0000 -3.8650 -12.1186 -18.6282 3.9236 7.1250 -0.0000 -0.0000 15.5246 -48.3719 -1.3209
7.4752 20.3237 6.3766 -178.6090 1.6786 -159.7050 0.0000 0.0000 0.0000 -20.8398 -15.9451 -24.7514 1.5293 7.8078 22.1318 -0.2661 11.4905 -11.6977 3.4780 -11.4314 -33.7490 0.0000 0.0000 0.0000 17.1241 27.4308 -25.7065 -3.4420 -11.3783 33.5667 -1.0032 -4.9415 -21.3202 -0.2168 2.9975 -8.2717 -2.0823 1.4354 -13.3640 -0.8179 2.9661 -6.0884 0.7392 1.8483 1.0386 9.0422 10.6827 -27.1479 -6.3330 13.1593 23.9343 -1.3380 5.6115 13.6413 -0.0000 -0.0000 0.0000 -79.5910 11.2666 21.6670 12.8554 -21.0749 -2.4010 -0.0000 0.0000 -40.1123 26.3933 0.1023 0.0507 -7.1250 0.0000 -0.0000 -0.1356 30.0939 0.0493 -0.0000 -0.0000 0.0000 84.5279 -5.2482 13.7949 -18.5147 28.8112 -4.7947 0.0000 -0.0000 -3.6138 -12.2039 -18.2599 3.8768 7.1250 -0.0000 -0.0000 15.3089 -48.0245 -1.1680
7.4648 20.3223 6.3758 -178.6580 1.4735 -159.6090 0.0000 0.0000 0.0000 -20.8799 -16.0768 -24.8367 1.5252 7.7979 22.1019 -0.2530 11.3260 -11.6567 3.4810 -11.4358 -33.7640 0.0000 0.0000 0.0000 16.9982 27.4826 -25.8244 -3.4621 -11.4080 33.6685 -1.0012 -5.1931 -21.4578 -0.2182 3.0068 -8.2976 -2.0694 1.4435 -13.5121 -0.7946 2.9903 -6.1133 0.7654 1.8651 1.0907 9.2720 10.8803 -26.8130 -6.4118 13.3958 23.8619 -1.3641 5.7340 13.5933 0.0000 -0.0000 0.0000 -79.4559 11.4338 21.7698 12.9288 -21.1828 -2.4275 -0.0000 0.0000 -40.2970 26.3130 0.0017 0.0009 -7.1250 0.0000 -0.0000 -0.1987 29.9816 0.0728 0.0000 -0.0000 0.0000 84.5839 -5.3070 13.4053 -18.3360 28.5853 -4.7089 0.0000 -0.0000 -3.4724 -12.2440 -18.0656 3.8500 7.1250 -0.0000 -0.0000 15.2009 -47.8401 -1.0889
7.4547 20.3205 6.3748 -178.6990 1.2474 -159.5140 0.0000 0.0000 0.0000 -20.9054 -16.2182 -24.9373 1.5247 7.7967 22.0983 -0.2384 11.1499 -11.6279 3.4845 -11.4409 -33.7816 0.0000 0.0000 0.0000 16.8862 27.5310 -25.9349 -3.4813 -11.4361 33.7652 -0.9982 -5.4530 -21.5960 -0.2182 3.0074 -8.2993 -2.0452 1.4616 -13.6636 -0.7782 3.0268 -6.1374 0.7800 1.8878 1.1458 9.4893 11.0766 -26.4911 -6.4656 13.6290 23.7975 -1.3789 5.8574 13.5484 -0.0000 -0.0000 0.0000 -79.3044 11.5633 21.8983 13.0000 -21.2872 -2.4533 -0.0000 0.0000 -40.4677 26.2219 -0.1016 -0.0500 -7.1250 0.0000 -0.0000 -0.2703 29.8665 0.0998 -0.0000 -0.0000 0.0000 84.6536 -5.3852 12.9588 -18.1658 28.3690 -4.6278 0.0000 -0.0000 -3.3409 -12.2949 -17.8762 3.8274 7.1250 -0.0000 -0.0000 15.0858 -47.6618 -1.0126
7.4447 20.3185 6.3735 -178.7350 0.9999 -159.4180 0.0000 0.0000 0.0000 -20.9192 -16.3693 -25.0411 1.5253 7.7982 22.1027 -0.2232 10.9637 -11.5999 3.4893 -11.4479 -33.8058 0.0000 0.0000 0.0000 16.7865 27.5764 -26.0430 -3.5016 -11.4659 33.8678 -0.9949 -5.7256 -21.7432 -0.2182 3.0073 -8.2990 -2.0171 1.4807 -13.8183 -0.7639 3.0647 -6.1617 0.7909 1.9114 1.2027 9.7084 11.2763 -26.1665 -6.5074 13.8647 23.7355 -1.3890 5.9841 13.5038 0.0000 -0.0000 0.0000 -79.1473 11.6658 22.0309 13.0738 -21.3953 -2.4802 -0.0000 0.0000 -40.6379 26.1532 -0.1930 -0.0948 -7.1250 0.0000 -0.0000 -0.3242 29.7646 0.1205 0.0000 -0.0000 0.0000 84.7290 -5.4995 12.5009 -18.0236 28.1874 -4.5604 0.0000 -0.0000 -3.2425 -12.3383 -17.7084 3.8065 7.1250 -0.0000 -0.0000 14.9862 -47.5034 -0.9459
7.4350 20.3161 6.3721 -178.7660 0.7303 -159.3250 0.0000 0.0000 0.0000 -20.9231 -16.5345 -25.1524 1.5285 7.8058 22.1258 -0.2073 10.7702 -11.5775 3.4955 -11.4569 -33.8369 0.0000 0.0000 0.0000 16.6972 27.6116 -26.1492 -3.5229 -11.4969 33.9745 -0.9915 -6.0037 -21.8965 -0.2180 3.0054 -8.2939 -1.9937 1.4899 -13.9782 -0.7478 3.0906 -6.1862 0.8050 1.9292 1.2621 9.9554 11.4870 -25.8208 -6.5560 14.1105 23.6676 -1.4047 6.1176 13.4576 0.0000 0.0000 0.0000 -78.9894 11.7523 22.1465 13.1488 -21.5049 -2.5076 -0.0000 0.0000 -40.7993 26.0854 -0.3009 -0.1473 -7.1250 0.0000 -0.0000 -0.3772 29.6446 0.1413 0.0000 0.0000 0.0000 84.8049 -5.6648 12.0855 -17.9302 28.0677 -4.5164 0.0000 -0.0000 -3.1941 -12.3705 -17.6041 3.7950 7.1250 -0.0000 -0.0000 14.9196 -47.4056 -0.9048
7.4255 20.3134 6.3704 -178.7940 0.4365 -159.2350 0.0000 0.0000 0.0000 -20.9169 -16.7129 -25.2688 1.5340 7.8192 22.1664 -0.1907 10.5681 -11.5598 3.5035 -11.4686 -33.8772 0.0000 0.0000 0.0000 16.6201 27.6371 -26.2530 -3.5456 -11.5298 34.0882 -0.9877 -6.2892 -22.0559 -0.2176 3.0027 -8.2864 -1.9746 1.4943 -14.1373 -0.7304 3.1110 -6.2109 0.8221 1.9447 1.3206 10.2253 11.7044 -25.4732 -6.6117 14.3614 23.6062 -1.4255 6.2543 13.4176 0.0000 0.0000 0.0000 -78.8311 11.8160 22.2592 13.2256 -21.6169 -2.5358 -0.0000 0.0000 -40.9516 26.0347 -0.4117 -0.2011 -7.1250 0.0000 -0.0000 -0.4168 29.5214 0.1573 0.0000 0.0000 0.0000 84.8817 -5.8762 11.6867 -17.8765 27.9987 -4.4911 0.0000 -0.0000 -3.1847 -12.3912 -17.5625 3.7929 7.1250 -0.0000 -0.0000 14.8861 -47.3677 -0.8885
7.4163 20.3101 6.3685 -178.8200 0.1192 -159.1490 0.0000 0.0000 0.0000 -20.9033 -16.9033 -25.3881 1.5417 7.8381 22.2233 -0.1735 10.3575 -11.5464 3.5134 -11.4830 -33.9268 0.0000 0.0000 0.0000 16.5540 27.6517 -26.3554 -3.5705 -11.5658 34.2127 -0.9837 -6.5805 -22.2209 -0.2172 3.0002 -8.2794 -1.9641 1.4931 -14.2927 -0.7108 3.1251 -6.2358 0.8452 1.9573 1.3763 10.5224 11.9281 -25.1266 -6.6799 14.6173 23.5533 -1.4539 6.3937 13.3865 -0.0000 -0.0000 0.0000 -78.6750 11.8582 22.3685 13.3040 -21.7311 -2.5648 -0.0000 0.0000 -41.0937 26.0064 -0.5210 -0.2542 -7.1250 0.0000 -0.0000 -0.4388 29.4000 0.1669 -0.0000 -0.0000 0.0000 84.9575 -6.1203 11.2927 -17.8472 27.9611 -4.4774 0.0000 -0.0000 -3.1968 -12.3963 -17.5802 3.7981 7.1250 -0.0000 -0.0000 14.8875 -47.3858 -0.8954
7.4075 20.3064 6.3664 -178.8460 -0.2196 -159.0690 0.0000 0.0000 0.0000 -20.8854 -17.1037 -25.5095 1.5517 7.8621 22.2960 -0.1557 10.1382 -11.5375 3.5250 -11.4999 -33.9851 0.0000 0.0000 0.0000 16.4968 27.6530 -26.4592 -3.5984 -11.6059 34.3517 -0.9795 -6.8741 -22.3911 -0.2171 2.9992 -8.2766 -2.2453 2.5695 -14.4517 -0.7828 2.8785 -6.2516 0.8765 1.0964 1.4146 10.8485 12.1589 -24.7809 -6.7629 14.8796 23.5076 -1.4907 6.5362 13.3645 -0.0000 -0.0000 0.0000 -78.5234 11.8814 22.4753 13.3853 -21.8491 -2.5949 -0.0000 0.0000 -41.2272 26.0036 -0.6213 -0.3031 -7.1250 0.0000 -0.0000 -0.4409 29.2884 0.1689 -0.0000 -0.0000 0.0000 85.0310 -6.3761 10.8818 -17.8191 27.9249 -4.4642 0.0000 -0.0000 -3.2043 -12.3845 -17.6374 3.8064 7.1250 -0.0000 -0.0000 14.9185 -47.4402 -0.9177
